<?xml version="1.0" standalone="no"?>
<!DOCTYPE svg PUBLIC "-//W3C//DTD SVG 1.1//EN"
  "http://www.w3.org/Graphics/SVG/1.1/DTD/svg11.dtd">
<svg width="297.0mm" height="210.0mm"  viewBox="0 0 297.0 210.0" xmlns="http://www.w3.org/2000/svg">
    <title>Sliced Surface</title>
    <desc>Exported Sliced Surface from Blender</desc>
<path style="fill:none;stroke:#000000;stroke-width:0.1;stroke-linecap:butt;stroke-linejoin:miter;stroke-opacity:1" d="M2.0,21.118729655905913 L3.4693877551020407,21.31590374072481 L4.938775510204081,21.430624307434293 L6.408163265306122,21.458765339683747 L7.877551020408163,21.41218187193044 L9.346938775510203,21.315779735986563 L10.816326530612244,21.202646526030804 L12.285714285714285,21.108036574799765 L13.755102040816325,21.063165188063703 L15.224489795918366,21.089785256390144 L16.693877551020407,21.19639072401599 L18.163265306122447,21.376636009585663 L19.632653061224488,21.61021684913615 L21.10204081632653,21.86607771009412 L22.57142857142857,22.107450863577355 L24.04081632653061,22.297946358584745 L25.51020408163265,22.407743499530863 L26.979591836734695,22.41890863625784 L28.448979591836732,22.328985631314776 L29.918367346938773,22.15225691575403 L31.387755102040813,21.918417879496157 L32.857142857142854,21.668794778057197 L34.326530612244895,21.450609129136577 L35.795918367346935,21.31009432524839 L37.265306122448976,21.285457513474856 L38.734693877551024,21.400723016798963 L40.20408163265306,21.661385010592284 L41.6734693877551,22.05255134345922 L43.14285714285714,22.539911994042694 L44.61224489795919,23.073464555347368 L46.08163265306122,23.593533166766413 L47.55102040816326,24.038283862348422 L49.0204081632653,24.35171696651077 L50.48979591836734,24.49103865059596 L51.95918367346939,24.432391087726177 L53.42857142857142,24.174143356352054 L54.897959183673464,23.737281889199682 L56.367346938775505,23.162841912347577 L57.836734693877546,22.506732484185008 L59.306122448979586,21.832668701404607 L60.77551020408163,21.204183918538156 L62.24489795918367,20.676815651837057 L63.71428571428571,20.291524426438745 L65.18367346938776,20.07022078811684 L66.65306122448979,20.013969181456037 L68.12244897959184,20.104053089207852 L69.59183673469387,20.305679451628507 L71.06122448979592,20.573730568570575 L72.53061224489795,20.85969145053018 L74.0,21.118729655905913 "/>
<path style="fill:none;stroke:#000000;stroke-width:0.1;stroke-linecap:butt;stroke-linejoin:miter;stroke-opacity:1" d="M74.0,21.069153633148925 L75.46938775510205,20.918541401051097 L76.93877551020408,20.576708400967036 L78.40816326530611,20.081133113294435 L79.87755102040816,19.488941360695172 L81.34693877551021,18.869404949657955 L82.81632653061224,18.294902272515316 L84.28571428571428,17.831591840757522 L85.75510204081633,17.531078970036315 L87.22448979591837,17.424203407526186 L88.6938775510204,17.517764367627322 L90.16326530612244,17.794574841821653 L91.63265306122449,18.216760951477383 L93.10204081632654,18.731763444504175 L94.57142857142857,19.280123239590726 L96.0408163265306,19.803894764520702 L97.51020408163265,20.254463067422495 L98.9795918367347,20.598651652536688 L100.44897959183673,20.822279937905595 L101.91836734693877,20.93072096393948 L103.38775510204081,20.94646300578884 L104.85714285714286,20.904125890089407 L106.3265306122449,20.843758123802193 L107.79591836734693,20.8034893314638 L109.26530612244898,20.812697840296934 L110.73469387755102,20.886763643587795 L112.20408163265306,21.024226428439405 L113.67346938775509,21.20679470637937 L115.14285714285714,21.402211372633236 L116.61224489795919,21.56953920317486 L118.08163265306122,21.66605301979855 L119.55102040816325,21.654670065622717 L121.0204081632653,21.51075513858085 L122.48979591836735,21.22721715228172 L123.9591836734694,20.817058028770656 L125.42857142857142,20.31290780829645 L126.89795918367346,19.763527003151385 L128.3673469387755,19.227712709022956 L129.83673469387753,18.76644141888621 L131.30612244897958,18.434359785574042 L132.77551020408163,18.271852706785182 L134.24489795918367,18.29885728498173 L135.71428571428572,18.511358779832477 L137.18367346938777,18.881133098612196 L138.6530612244898,19.35884262814772 L140.12244897959184,19.880114106084434 L141.59183673469386,20.373797856183636 L143.0612244897959,20.771289411767615 L144.53061224489795,21.015633821408663 L146.0,21.069153633148925 "/>
<path style="fill:none;stroke:#000000;stroke-width:0.1;stroke-linecap:butt;stroke-linejoin:miter;stroke-opacity:1" d="M146.0,20.607597827998823 L147.46938775510205,20.72540793285905 L148.9387755102041,20.57185607211037 L150.40816326530611,20.18524969608848 L151.87755102040816,19.62525139338133 L153.3469387755102,18.963798982814563 L154.81632653061223,18.27519425440951 L156.28571428571428,17.62677030650989 L157.75510204081633,17.071400621238375 L159.22448979591837,16.642788208730554 L160.69387755102042,16.3540214753835 L162.16326530612244,16.199373945258287 L163.6326530612245,16.15883418527028 L165.10204081632654,16.204453102808536 L166.57142857142856,16.30734657698087 L168.0408163265306,16.444127523611307 L169.51020408163265,16.601670243462426 L170.9795918367347,16.779409492533052 L172.44897959183675,16.988799712804248 L173.91836734693877,17.250040352639125 L175.3877551020408,17.586636682957558 L176.85714285714286,18.018740056316677 L178.32653061224488,18.556438608185385 L179.79591836734693,19.19421258669184 L181.26530612244898,19.907619144957227 L182.73469387755102,20.652949989631463 L184.20408163265307,21.37015842728354 L185.6734693877551,21.988846187548628 L187.14285714285714,22.436610740099766 L188.6122448979592,22.64865498401793 L190.0816326530612,22.577314963184804 L191.55102040816325,22.20010764818092 L193.0204081632653,21.525051922018715 L194.48979591836735,20.59235386533914 L195.9591836734694,19.472026793408503 L197.42857142857142,18.25757056307541 L198.89795918367346,17.056385054587093 L200.3673469387755,15.97806064198996 L201.83673469387753,15.12200609758284 L203.30612244897958,14.565994802608103 L204.77551020408163,14.357114193738482 L206.24489795918367,14.506302565934467 L207.71428571428572,14.987192330991107 L209.18367346938777,15.739413677473394 L210.6530612244898,16.675925685802564 L212.12244897959184,17.693414847246498 L213.59183673469386,18.68440663627038 L215.0612244897959,19.549528394887403 L216.53061224489795,20.208368814905324 L218.0,20.607597827998823 "/>
<path style="fill:none;stroke:#000000;stroke-width:0.1;stroke-linecap:butt;stroke-linejoin:miter;stroke-opacity:1" d="M218.0,19.196814652970936 L219.46938775510205,19.792439152709814 L220.9387755102041,20.244575557296052 L222.40816326530611,20.561389113309303 L223.87755102040816,20.759884525448754 L225.3469387755102,20.85912621520634 L226.81632653061223,20.874262044877796 L228.28571428571428,20.81243341458586 L229.75510204081633,20.671291186599767 L231.22448979591837,20.440360337959937 L232.69387755102042,20.104982532131984 L234.16326530612244,19.65209641447002 L235.6326530612245,19.07676506594146 L237.10204081632654,18.388185280374564 L238.57142857142856,17.613944019419385 L240.0408163265306,16.80152202841357 L241.51020408163265,16.01645029976836 L242.9795918367347,15.33704234515988 L244.44897959183675,14.846176653421145 L245.91836734693877,14.621105346856012 L247.3877551020408,14.722638977166653 L248.85714285714286,15.185243380441204 L250.32653061224488,16.00954915146729 L251.79591836734693,17.15851635535012 L253.26530612244898,18.558048066630985 L254.73469387755102,20.10226625585485 L256.2040816326531,21.663032608854532 L257.6734693877551,23.10270396033507 L259.1428571428571,24.288641987841082 L260.61224489795916,25.10771814323552 L262.0816326530612,25.479009657602603 L263.55102040816325,25.363080410440336 L265.0204081632653,24.76665688837815 L266.48979591836735,23.742088886714868 L267.9591836734694,22.381648432644997 L269.42857142857144,20.807378015318058 L270.8979591836735,19.157760783597737 L272.3673469387755,17.57287462704638 L273.83673469387753,16.17985699211281 L275.3061224489796,15.080427480185099 L276.7755102040816,14.341904621684678 L278.2448979591837,13.992657757041421 L279.7142857142857,14.022326089370335 L281.18367346938777,14.386501113923162 L282.65306122448976,15.014994724923401 L284.1224489795918,15.822382100161553 L285.59183673469386,16.71927334218884 L287.0612244897959,17.622758814688964 L288.53061224489795,18.46468510750634 L290.0,19.196814652970932 "/>
<path style="fill:none;stroke:#000000;stroke-width:0.1;stroke-linecap:butt;stroke-linejoin:miter;stroke-opacity:1" d="M2.0,57.30698545265414 L3.4693877551020407,57.87990267106497 L4.938775510204081,58.62249458000645 L6.408163265306122,59.524940864311205 L7.877551020408163,60.559660317639484 L9.346938775510203,61.67836533227752 L10.816326530612244,62.81234078489662 L12.285714285714285,63.87635071769314 L13.755102040816325,64.77600217422213 L15.224489795918366,65.41782027899474 L16.693877551020407,65.72080083926026 L18.163265306122447,65.62788371238739 L19.632653061224488,65.11568617037881 L21.10204081632653,64.20097329373021 L22.57142857142857,62.94270954376918 L24.04081632653061,61.43908563978664 L25.51020408163265,59.81957360776951 L26.979591836734695,58.23273905215473 L28.448979591836732,56.83113781198219 L29.918367346938773,55.75505822428967 L31.387755102040813,55.117076273193156 L32.857142857142854,54.989336393774096 L34.326530612244895,55.395159383584435 L35.795918367346935,56.306050552318965 L37.265306122448976,57.64450631170051 L38.734693877551024,59.29228702766497 L40.20408163265306,61.10313720222805 L41.6734693877551,62.91838394255437 L43.14285714285714,64.58350505766438 L44.61224489795919,65.96367331053229 L46.08163265306122,66.95646199246694 L47.55102040816326,67.5003110425668 L49.0204081632653,67.57794191424199 L50.48979591836734,67.21458918224339 L51.95918367346939,66.47159192397766 L53.42857142857142,65.43646490260227 L54.897959183673464,64.21097078451913 L56.367346938775505,62.89888878433214 L57.836734693877546,61.59510448509037 L59.306122448979586,60.377347957871024 L60.77551020408163,59.30143302178266 L62.24489795918367,58.400274554201644 L63.71428571428571,57.6863715482209 L65.18367346938776,57.156929652668545 L66.65306122448979,56.80043382048936 L68.12244897959184,56.603321021294235 L69.59183673469387,56.55546487459109 L71.06122448979592,56.653454483178024 L72.53061224489795,56.901082843824454 L74.0,57.30698545265414 "/>
<path style="fill:none;stroke:#000000;stroke-width:0.1;stroke-linecap:butt;stroke-linejoin:miter;stroke-opacity:1" d="M74.0,56.02232464564468 L75.46938775510205,55.896791040286686 L76.93877551020408,56.222696720484166 L78.40816326530611,57.007992399204575 L79.87755102040816,58.21711277323122 L81.34693877551021,59.77084031462394 L82.81632653061224,61.55146079821196 L84.28571428571428,63.41287789495179 L85.75510204081633,65.19467121062978 L87.22448979591837,66.73851739444974 L88.6938775510204,67.90502919813518 L90.16326530612244,68.5889572400971 L91.63265306122449,68.73086305221648 L93.10204081632654,68.3237907769508 L94.57142857142857,67.41408379416494 L96.0408163265306,66.09622848067137 L97.51020408163265,64.50236053374041 L98.9795918367347,62.78773757746353 L100.44897959183673,61.11397476536682 L101.91836734693877,59.63209206144913 L103.38775510204081,58.46740090600102 L104.85714285714286,57.707970291258746 L106.3265306122449,57.39790116272515 L107.79591836734693,57.535977434847865 L109.26530612244898,58.079545556207805 L110.73469387755102,58.95280262466012 L112.20408163265306,60.058137696644465 L113.67346938775509,61.28884325689657 L115.14285714285714,62.54143393060275 L116.61224489795919,63.72598120670882 L118.08163265306122,64.77326360222025 L119.55102040816325,65.63807761866212 L121.0204081632653,66.29867093718767 L122.48979591836735,66.7528518932532 L123.9591836734694,67.0118100313205 L125.42857142857142,67.0929814958289 L126.89795918367346,67.01336877075292 L128.3673469387755,66.78456991404487 L129.83673469387753,66.41041623708178 L131.30612244897958,65.8876183494884 L132.77551020408163,65.20925925121858 L134.24489795918367,64.37043967270984 L135.71428571428572,63.374960779178565 L137.18367346938777,62.24169095985564 L138.6530612244898,61.00924723184305 L140.12244897959184,59.73783424487535 L141.59183673469386,58.507496141599034 L143.0612244897959,57.41258856222454 L144.53061224489795,56.55288738953968 L146.0,56.02232464564469 "/>
<path style="fill:none;stroke:#000000;stroke-width:0.1;stroke-linecap:butt;stroke-linejoin:miter;stroke-opacity:1" d="M146.0,56.00594308125132 L147.46938775510205,55.10830943656675 L148.9387755102041,54.716880062467865 L150.40816326530611,54.868534581480745 L151.87755102040816,55.54825970295007 L153.3469387755102,56.690722796249865 L154.81632653061223,58.18755113345344 L156.28571428571428,59.89940205193589 L157.75510204081633,61.67130535129327 L159.22448979591837,63.34936123838466 L160.69387755102042,64.79673802080895 L162.16326530612244,65.90705002407478 L163.6326530612245,66.61358576051708 L165.10204081632654,66.89344186086284 L166.57142857142856,66.76631551586662 L168.0408163265306,66.28841837235275 L169.51020408163265,65.54259881104431 L170.9795918367347,64.62621194009327 L172.44897959183675,63.63849801197672 L173.91836734693877,62.66919501650001 L175.3877551020408,61.789832018913515 L176.85714285714286,61.04867366931157 L178.32653061224488,60.469688315113615 L179.79591836734693,60.055283909312855 L181.26530612244898,59.79199186485265 L182.73469387755102,59.657862461242956 L184.20408163265307,59.63012629269929 L185.6734693877551,59.69170241818513 L187.14285714285714,59.83538722945746 L188.6122448979592,60.06499599105575 L190.0816326530612,60.393281016269626 L191.55102040816325,60.83702883988866 L193.0204081632653,61.41025194572278 L194.48979591836735,62.11675696561575 L195.9591836734694,62.943531462279196 L197.42857142857142,63.856317479783726 L198.89795918367346,64.79843978047055 L200.3673469387755,65.69347268099366 L201.83673469387753,66.45173291583039 L203.30612244897958,66.97996647397649 L204.77551020408163,67.19304934248066 L206.24489795918367,67.02613094216827 L207.71428571428572,66.445478246435 L209.18367346938777,65.45636002718891 L210.6530612244898,64.10663955556859 L212.12244897959184,62.48527911108694 L213.59183673469386,60.715628654097806 L215.0612244897959,58.94408109997891 L216.53061224489795,57.3253274381792 L218.0,56.00594308125132 "/>
<path style="fill:none;stroke:#000000;stroke-width:0.1;stroke-linecap:butt;stroke-linejoin:miter;stroke-opacity:1" d="M218.0,56.932140297627484 L219.46938775510205,55.929007942912335 L220.9387755102041,55.27621577445923 L222.40816326530611,55.006615600380236 L223.87755102040816,55.11297685711783 L225.3469387755102,55.55194106606896 L226.81632653061223,56.252133667797025 L228.28571428571428,57.12513223703519 L229.75510204081633,58.0776518076539 L231.22448979591837,59.02321174676251 L232.69387755102042,59.89170307638095 L234.16326530612244,60.63565265474434 L235.6326530612245,61.23252142462426 L237.10204081632654,61.682995199365905 L238.57142857142856,62.005834684532445 L240.0408163265306,62.23035627272064 L241.51020408163265,62.38794270337975 L242.9795918367347,62.50408631205892 L244.44897959183675,62.592334665008735 L245.91836734693877,62.65116192610435 L247.3877551020408,62.66428445024012 L248.85714285714286,62.60435468409136 L250.32653061224488,62.43939419704274 L251.79591836734693,62.140853544101944 L253.26530612244898,61.69188758147183 L254.73469387755102,61.09435752510792 L256.2040816326531,60.37322974740081 L257.6734693877551,59.57741462222667 L259.1428571428571,58.77662253589978 L260.61224489795916,58.05442955101385 L262.0816326530612,57.4983499963724 L263.55102040816325,57.188215711252305 L265.0204081632653,57.18448407560797 L266.48979591836735,57.518187256883266 L267.9591836734694,58.18407484528665 L269.42857142857144,59.13810941969135 L270.8979591836735,60.299902098018634 L272.3673469387755,61.56000226053213 L273.83673469387753,62.791277500048324 L275.3061224489796,63.86303349529018 L276.7755102040816,64.65611385688176 L278.2448979591837,65.07704751918902 L279.7142857142857,65.06940305474598 L281.18367346938777,64.6208550442615 L282.65306122448976,63.76502088801563 L284.1224489795918,62.577811132031044 L285.59183673469386,61.168757640746605 L287.0612244897959,59.66844163566017 L288.53061224489795,58.21364660951821 L290.0,56.932140297627484 "/>
<path style="fill:none;stroke:#000000;stroke-width:0.1;stroke-linecap:butt;stroke-linejoin:miter;stroke-opacity:1" d="M2.0,97.95912258386564 L3.4693877551020407,97.57663722918109 L4.938775510204081,97.37028075115524 L6.408163265306122,97.32594669641992 L7.877551020408163,97.40892988317373 L9.346938775510203,97.5715401264694 L10.816326530612244,97.76235407363018 L12.285714285714285,97.93560436977187 L13.755102040816325,98.05921022348036 L15.224489795918366,98.1201850461573 L16.693877551020407,98.12657921182227 L18.163265306122447,98.10566486841364 L19.632653061224488,98.09866214975472 L21.10204081632653,98.15285270179118 L22.57142857142857,98.31234459737364 L24.04081632653061,98.60897899785797 L25.51020408163265,99.05486836250759 L26.979591836734695,99.63782738572863 L28.448979591836732,100.32053394111729 L29.918367346938773,101.04370016902422 L31.387755102040813,101.73292568174955 L32.857142857142854,102.30833601111408 L34.326530612244895,102.69566503521926 L35.795918367346935,102.83718758090652 L37.265306122448976,102.70088732139462 L38.734693877551024,102.28646135280735 L40.20408163265306,101.62718753723819 L41.6734693877551,100.78725421004245 L43.14285714285714,99.85479235647969 L44.61224489795919,98.9314657097847 L46.08163265306122,98.11997527733492 L47.55102040816326,97.51114843334841 L49.0204081632653,97.17236247916543 L50.48979591836734,97.13888553230217 L51.95918367346939,97.4093263170625 L53.42857142857142,97.94582375939227 L54.897959183673464,98.67895654954845 L56.367346938775505,99.51670436675309 L57.836734693877546,100.3562383103424 L59.306122448979586,101.09693673798591 L60.77551020408163,101.65286778793094 L62.24489795918367,101.96307240479159 L63.71428571428571,101.99830720294028 L65.18367346938776,101.7634171358656 L66.65306122448979,101.29512949612283 L68.12244897959184,100.65570352188121 L69.59183673469387,99.9234416182741 L71.06122448979592,99.18148757821783 L72.53061224489795,98.50654549187 L74.0,97.95912258386564 "/>
<path style="fill:none;stroke:#000000;stroke-width:0.1;stroke-linecap:butt;stroke-linejoin:miter;stroke-opacity:1" d="M74.0,98.66899641093006 L75.46938775510205,98.92832565870734 L76.93877551020408,99.32272095993105 L78.40816326530611,99.78923051512356 L79.87755102040816,100.2569850417043 L81.34693877551021,100.65757891412382 L82.81632653061224,100.93502618715134 L84.28571428571428,101.05383978847917 L85.75510204081633,101.00405873250678 L87.22448979591837,100.80249618065643 L88.6938775510204,100.49003498244502 L90.16326530612244,100.12537596268525 L91.63265306122449,99.77616306497596 L93.10204081632654,99.50879268451064 L94.57142857142857,99.37840614576449 L96.0408163265306,99.42053636096931 L97.51020408163265,99.64563641761994 L98.9795918367347,100.03729486124014 L100.44897959183673,100.55440171448754 L101.91836734693877,101.13694997058234 L103.38775510204081,101.71462421727173 L104.85714285714286,102.21691921741103 L106.3265306122449,102.58330654239604 L107.79591836734693,102.77195963829283 L109.26530612244898,102.76575816432762 L110.73469387755102,102.57469031968368 L112.20408163265306,102.23429898118445 L113.67346938775509,101.80039670602704 L115.14285714285714,101.34082126007561 L116.61224489795919,100.92543731196855 L118.08163265306122,100.61584773475724 L119.55102040816325,100.45632177528216 L121.0204081632653,100.46727066356215 L122.48979591836735,100.64222975967942 L123.9591836734694,100.94879428463369 L125.42857142857142,101.33337783851535 L126.89795918367346,101.72910370516865 L128.3673469387755,102.06568011674257 L129.83673469387753,102.27981930471566 L131.30612244897958,102.32467894800445 L132.77551020408163,102.17694550853177 L134.24489795918367,101.8405214434053 L135.71428571428572,101.34627246799974 L137.18367346938777,100.74786481745876 L138.6530612244898,100.11429208117536 L140.12244897959184,99.52017352604126 L141.59183673469386,99.03523047904807 L143.0612244897959,98.71446693009767 L144.53061224489795,98.59047760617568 L146.0,98.66899641093006 "/>
<path style="fill:none;stroke:#000000;stroke-width:0.1;stroke-linecap:butt;stroke-linejoin:miter;stroke-opacity:1" d="M146.0,99.4154988215792 L147.46938775510205,99.62820033844437 L148.9387755102041,100.02259972452404 L150.40816326530611,100.53565501148915 L151.87755102040816,101.09965532143616 L153.3469387755102,101.65148874803562 L154.81632653061223,102.14055816615488 L156.28571428571428,102.53427430577675 L157.75510204081633,102.82044658331094 L159.22448979591837,103.00637460763093 L160.69387755102042,103.11494458854449 L162.16326530612244,103.1784805787369 L163.6326530612245,103.2314249386063 L165.10204081632654,103.30307846994555 L166.57142857142856,103.41159651803937 L168.0408163265306,103.56021966738122 L169.51020408163265,103.73635051868325 L170.9795918367347,103.91362776237162 L172.44897959183675,104.05666554006868 L173.91836734693877,104.12769350108049 L175.3877551020408,104.09401706254823 L176.85714285714286,103.93506683490786 L178.32653061224488,103.64784498594335 L179.79591836734693,103.24980019643304 L181.26530612244898,102.77853975652748 L182.73469387755102,102.28826209293844 L184.20408163265307,101.84329538099414 L185.6734693877551,101.50958292939939 L187.14285714285714,101.34529510012463 L188.6122448979592,101.39191850665162 L190.0816326530612,101.66714826970944 L191.55102040816325,102.16068889136886 L193.0204081632653,102.83368316149023 L194.48979591836735,103.62199029676654 L195.9591836734694,104.44299492631905 L197.42857142857142,105.2051249124765 L198.89795918367346,105.81886110100456 L200.3673469387755,106.20779355723153 L201.83673469387753,106.31825072811083 L203.30612244897958,106.12620575748323 L204.77551020408163,105.64052388149207 L206.24489795918367,104.9021063552224 L207.71428571428572,103.97904068399097 L209.18367346938777,102.95840599415924 L210.6530612244898,101.93583030268309 L212.12244897959184,101.00419043848288 L213.59183673469386,100.24294472474169 L215.0612244897959,99.70948042992018 L216.53061224489795,99.43355926730582 L218.0,99.4154988215792 "/>
<path style="fill:none;stroke:#000000;stroke-width:0.1;stroke-linecap:butt;stroke-linejoin:miter;stroke-opacity:1" d="M218.0,100.71909918096277 L219.46938775510205,100.25911486843287 L220.9387755102041,99.94543166129978 L222.40816326530611,99.76821016653457 L223.87755102040816,99.71588829817611 L225.3469387755102,99.77916897028899 L226.81632653061223,99.95344246811051 L228.28571428571428,100.2392206049304 L229.75510204081633,100.64053383110631 L231.22448979591837,101.16162271886743 L232.69387755102042,101.80258075343234 L234.16326530612244,102.55482358317612 L235.6326530612245,103.39733470177958 L237.10204081632654,104.29455480784574 L238.57142857142856,105.19655191558665 L240.0408163265306,106.04176467887146 L241.51020408163265,106.76220346417637 L242.9795918367347,107.29058418658067 L244.44897959183675,107.56852196566936 L245.91836734693877,107.55468041399575 L247.3877551020408,107.23169663716925 L248.85714285714286,106.61079824993033 L250.32653061224488,105.73328823974093 L251.79591836734693,104.66846348784406 L253.26530612244898,103.5080006124713 L254.73469387755102,102.35732362591392 L256.2040816326531,101.32489372283588 L257.6734693877551,100.51067108296672 L259.1428571428571,99.99514622377046 L260.61224489795916,99.83030082945356 L262.0816326530612,100.03363759707709 L263.55102040816325,100.58604363179008 L265.0204081632653,101.43377226336351 L266.48979591836735,102.49430864910262 L267.9591836734694,103.66539568487356 L269.42857142857144,104.83610483349784 L270.8979591836735,105.89859417494655 L272.3673469387755,106.75913497436679 L273.83673469387753,107.34711466517417 L275.3061224489796,107.62101854080026 L276.7755102040816,107.57081168036535 L278.2448979591837,107.21662687029337 L279.7142857142857,106.60414547578982 L281.18367346938777,105.79746986191658 L282.65306122448976,104.87057258083676 L284.1224489795918,103.89853246848516 L285.59183673469386,102.94971820736897 L287.0612244897959,102.07986834610008 L288.53061224489795,101.32867893320912 L290.0,100.71909918096277 "/>
<path style="fill:none;stroke:#000000;stroke-width:0.1;stroke-linecap:butt;stroke-linejoin:miter;stroke-opacity:1" d="M2.0,142.43940380206428 L3.4693877551020407,141.45394229208154 L4.938775510204081,140.41608566161605 L6.408163265306122,139.37264394973488 L7.877551020408163,138.37952319589206 L9.346938775510203,137.4997201950126 L10.816326530612244,136.79944394404293 L12.285714285714285,136.34258283011528 L13.755102040816325,136.18405411581338 L15.224489795918366,136.3628291749626 L16.693877551020407,136.89558058443848 L18.163265306122447,137.7719164144254 L19.632653061224488,138.9520428929036 L21.10204081632653,140.36744017119344 L22.57142857142857,141.92477825091558 L24.04081632653061,143.51288813585543 L25.51020408163265,145.01219315344278 L26.979591836734695,146.30565472603297 L28.448979591836732,147.29004634477516 L29.918367346938773,147.88627552727706 L31.387755102040813,148.04754287320836 L32.857142857142854,147.76435440282705 L34.326530612244895,147.0657608051612 L35.795918367346935,146.01663948712127 L37.265306122448976,144.7113048925452 L38.734693877551024,143.26416791944533 L40.20408163265306,141.7985093802264 L41.6734693877551,140.4346407093116 L43.14285714285714,139.2787714712411 L44.61224489795919,138.41378368723952 L46.08163265306122,137.89284608619568 L47.55102040816326,137.73642531071462 L49.0204081632653,137.93281825841194 L50.48979591836734,138.4418991871616 L51.95918367346939,139.20140436118803 L53.42857142857142,140.13481356192415 L54.897959183673464,141.15976318534635 L56.367346938775505,142.1959509654011 L57.836734693877546,143.17165713769575 L59.306122448979586,144.02828106470199 L60.77551020408163,144.72263117592354 L62.24489795918367,145.22705680203597 L63.71428571428571,145.52782036234498 L65.18367346938776,145.622332459935 L66.65306122448979,145.515980152693 L68.12244897959184,145.21925808027055 L69.59183673469387,144.74577148378057 L71.06122448979592,144.11144632292766 L72.53061224489795,143.33499582045218 L74.0,142.43940380206428 "/>
<path style="fill:none;stroke:#000000;stroke-width:0.1;stroke-linecap:butt;stroke-linejoin:miter;stroke-opacity:1" d="M74.0,143.7119257548122 L75.46938775510205,142.99520085942285 L76.93877551020408,141.9803939328041 L78.40816326530611,140.72032695641653 L79.87755102040816,139.29238441760458 L81.34693877551021,137.7940348329112 L82.81632653061224,136.33581601918817 L84.28571428571428,135.03233712759993 L85.75510204081633,133.9921433235646 L87.22448979591837,133.30748893930684 L88.6938775510204,133.0451405446405 L90.16326530612244,133.2392675799964 L91.63265306122449,133.88727865273657 L93.10204081632654,134.94914859874748 L94.57142857142857,136.3503930399504 L96.0408163265306,137.98843224142433 L97.51020408163265,139.74169752329058 L98.9795918367347,141.48052113074232 L100.44897959183673,143.07865418757345 L101.91836734693877,144.42420163889915 L103.38775510204081,145.42885371583478 L104.85714285714286,146.03451682878207 L106.3265306122449,146.2167719393949 L107.79591836734693,145.9849714381374 L109.26530612244898,145.37917565698203 L110.73469387755102,144.46447696325725 L112.20408163265306,143.32351973117585 L113.67346938775509,142.04816824486736 L115.14285714285714,140.73128856138587 L116.61224489795919,139.45949971914885 L118.08163265306122,138.30753670996097 L119.55102040816325,137.33458810447513 L121.0204081632653,136.58266883475144 L122.48979591836735,136.07680846284836 L123.9591836734694,135.82661709262405 L125.42857142857142,135.82866368700928 L126.89795918367346,136.06907868964998 L128.3673469387755,136.52587156184794 L129.83673469387753,137.17061531058562 L131.30612244897958,137.96936284241377 L132.77551020408163,138.88288504883673 L134.24489795918367,139.8665176196344 L135.71428571428572,140.87003746298285 L137.18367346938777,141.8380356899171 L138.6530612244898,142.7112023571748 L140.12244897959184,143.42879475868048 L141.59183673469386,143.9323476369257 L143.0612244897959,144.17043409511476 L144.53061224489795,144.1040411716264 L146.0,143.7119257548122 "/>
<path style="fill:none;stroke:#000000;stroke-width:0.1;stroke-linecap:butt;stroke-linejoin:miter;stroke-opacity:1" d="M146.0,143.77113586135903 L147.46938775510205,143.93781094063797 L148.9387755102041,143.70816526255277 L150.40816326530611,143.08776832847377 L151.87755102040816,142.11574927855972 L153.3469387755102,140.86229660661024 L154.81632653061223,139.4230562613183 L156.28571428571428,137.9109430455624 L157.75510204081633,136.4461823319185 L159.22448979591837,135.14560666376286 L160.69387755102042,134.112317842788 L162.16326530612244,133.4267785653785 L163.6326530612245,133.1402249412532 L165.10204081632654,133.27101521129984 L166.57142857142856,133.80418691012326 L168.0408163265306,134.69412912688765 L169.51020408163265,135.86993509908174 L170.9795918367347,137.2427255963079 L172.44897959183675,138.7140579371047 L173.91836734693877,140.18447735273926 L175.3877551020408,141.56132869145588 L176.85714285714286,142.7651128191799 L178.32653061224488,143.73391538829196 L179.79591836734693,144.42571834188595 L181.26530612244898,144.81868520429046 L182.73469387755102,144.90975072235463 L184.20408163265307,144.7120124456974 L185.6734693877551,144.25149722124237 L187.14285714285714,143.56385480961757 L188.6122448979592,142.69142425391195 L190.0816326530612,141.68094946429238 L191.55102040816325,140.5820209251557 L193.0204081632653,139.44612647054015 L194.48979591836735,138.32603977448537 L195.9591836734694,137.2751873595805 L197.42857142857142,136.3466288671617 L198.89795918367346,135.59136251627393 L200.3673469387755,135.0558154465753 L201.83673469387753,134.77857215587233 L203.30612244897958,134.78660033358398 L204.77551020408163,135.0914157181 L206.24489795918367,135.68575238142026 L207.71428571428572,136.5413462387644 L209.18367346938777,137.6083839938463 L210.6530612244898,138.8170182736172 L212.12244897959184,140.0811184988801 L213.59183673469386,141.30414524424657 L215.0612244897959,142.38674171288278 L216.53061224489795,143.23537142545104 L218.0,143.77113586135903 "/>
<path style="fill:none;stroke:#000000;stroke-width:0.1;stroke-linecap:butt;stroke-linejoin:miter;stroke-opacity:1" d="M218.0,142.76279648600837 L219.46938775510205,143.61860869336726 L220.9387755102041,144.18536324487573 L222.40816326530611,144.41863316214574 L223.87755102040816,144.30406588550565 L225.3469387755102,143.85803674421976 L226.81632653061223,143.12523475649323 L228.28571428571428,142.17353572428658 L229.75510204081633,141.08681904600786 L231.22448979591837,139.9565962788074 L232.69387755102042,138.8734161587267 L234.16326530612244,137.9189834657381 L235.6326530612245,137.15978574659243 L237.10204081632654,136.64278601646922 L238.57142857142856,136.39344666694424 L240.0408163265306,136.41604215065516 L241.51020408163265,136.69593841521245 L242.9795918367347,137.20330280918273 L244.44897959183675,137.897585819523 L245.91836734693877,138.73209774351443 L247.3877551020408,139.65808573668886 L248.85714285714286,140.6278812835207 L250.32653061224488,141.59690495677853 L251.79591836734693,142.52454737115323 L253.26530612244898,143.37415431767786 L254.73469387755102,144.11249668148247 L256.2040816326531,144.70917815427362 L257.6734693877551,145.13641554048107 L259.1428571428571,145.36952204779155 L260.61224489795916,145.38825185209703 L262.0816326530612,145.17895409857894 L263.55102040816325,144.7372725405924 L265.0204081632653,144.0709503043339 L266.48979591836735,143.20218994245886 L267.9591836734694,142.16899910012268 L269.42857142857144,141.02503018303375 L270.8979591836735,139.83759154266681 L272.3673469387755,138.68374646800527 L273.83673469387753,137.64469163432221 L275.3061224489796,136.7988786075177 L276.7755102040816,136.2145694298004 L278.2448979591837,135.94266410158173 L279.7142857142857,136.01067826553736 L281.18367346938777,136.41867241554985 L282.65306122448976,137.13774478048947 L284.1224489795918,138.11142003447486 L285.59183673469386,139.25992989302173 L287.0612244897959,140.48703289626303 L288.53061224489795,141.68870540528576 L290.0,142.76279648600837 "/>
<path style="fill:none;stroke:#000000;stroke-width:0.1;stroke-linecap:butt;stroke-linejoin:miter;stroke-opacity:1" d="M2.0,181.62344329620507 L3.4693877551020407,182.40477932808815 L4.938775510204081,183.06452438699648 L6.408163265306122,183.55550778727525 L7.877551020408163,183.8509690434006 L9.346938775510203,183.9453726244895 L10.816326530612244,183.85270938645522 L12.285714285714285,183.60269772083154 L13.755102040816325,183.23555335664793 L15.224489795918366,182.7961474549407 L16.693877551020407,182.3283999730894 L18.163265306122447,181.87065934086252 L19.632653061224488,181.45261835721686 L21.10204081632653,181.09404303703369 L22.57142857142857,180.80528904441852 L24.04081632653061,180.5892959473185 L25.51020408163265,180.4445259171291 L26.979591836734695,180.368183873371 L28.448979591836732,180.35903884468135 L29.918367346938773,180.419262445702 L31.387755102040813,180.55489333347737 L32.857142857142854,180.77479487775614 L34.326530612244895,181.08825552544843 L35.795918367346935,181.50164214297885 L37.265306122448976,182.01471376791937 L38.734693877551024,182.61730402164724 L40.20408163265306,183.28706682631454 L41.6734693877551,183.9888513667212 L43.14285714285714,184.6760454826778 L44.61224489795919,185.29393424459096 L46.08163265306122,185.78480537998342 L47.55102040816326,186.09424285145798 L49.0204081632653,186.1778289420592 L50.48979591836734,186.00735903985662 L51.95918367346939,185.5756825725969 L53.42857142857142,184.89942089671496 L54.897959183673464,184.01906243941636 L56.367346938775505,182.99626451243847 L57.836734693877546,181.90855537847483 L59.306122448979586,180.84197899211927 L60.77551020408163,179.8825093860927 L62.24489795918367,179.10724137967065 L63.71428571428571,178.5764128778733 L65.18367346938776,178.32722335496697 L66.65306122448979,178.37019440201027 L68.12244897959184,178.6885005648895 L69.59183673469387,179.24032501170717 L71.06122448979592,179.9639155168051 L72.53061224489795,180.78468312052232 L74.0,181.62344329620507 "/>
<path style="fill:none;stroke:#000000;stroke-width:0.1;stroke-linecap:butt;stroke-linejoin:miter;stroke-opacity:1" d="M74.0,181.11872965590592 L75.46938775510205,181.31590374072482 L76.93877551020408,181.4306243074343 L78.40816326530611,181.45876533968377 L79.87755102040816,181.41218187193044 L81.34693877551021,181.31577973598655 L82.81632653061224,181.2026465260308 L84.28571428571428,181.10803657479977 L85.75510204081633,181.0631651880637 L87.22448979591837,181.08978525639014 L88.6938775510204,181.196390724016 L90.16326530612244,181.37663600958567 L91.63265306122449,181.61021684913615 L93.10204081632654,181.86607771009412 L94.57142857142857,182.10745086357736 L96.0408163265306,182.29794635858474 L97.51020408163265,182.40774349953085 L98.9795918367347,182.41890863625784 L100.44897959183673,182.32898563131477 L101.91836734693877,182.15225691575404 L103.38775510204081,181.91841787949616 L104.85714285714286,181.6687947780572 L106.3265306122449,181.45060912913658 L107.79591836734693,181.3100943252484 L109.26530612244898,181.28545751347485 L110.73469387755102,181.40072301679896 L112.20408163265306,181.66138501059228 L113.67346938775509,182.0525513434592 L115.14285714285714,182.53991199404268 L116.61224489795919,183.07346455534736 L118.08163265306122,183.5935331667664 L119.55102040816325,184.03828386234844 L121.0204081632653,184.35171696651076 L122.48979591836735,184.49103865059595 L123.9591836734694,184.4323910877262 L125.42857142857142,184.17414335635206 L126.89795918367346,183.7372818891997 L128.3673469387755,183.16284191234757 L129.83673469387753,182.50673248418502 L131.30612244897958,181.8326687014046 L132.77551020408163,181.20418391853815 L134.24489795918367,180.67681565183705 L135.71428571428572,180.29152442643874 L137.18367346938777,180.07022078811684 L138.6530612244898,180.01396918145605 L140.12244897959184,180.10405308920787 L141.59183673469386,180.30567945162852 L143.0612244897959,180.57373056857057 L144.53061224489795,180.8596914505302 L146.0,181.11872965590592 "/>
<path style="fill:none;stroke:#000000;stroke-width:0.1;stroke-linecap:butt;stroke-linejoin:miter;stroke-opacity:1" d="M2,2.0 L290.0,2.0 "/>
<path style="fill:none;stroke:#000000;stroke-width:0.1;stroke-linecap:butt;stroke-linejoin:miter;stroke-opacity:1" d="M2,42.0 L290.0,42.0 "/>
<path style="fill:none;stroke:#000000;stroke-width:0.1;stroke-linecap:butt;stroke-linejoin:miter;stroke-opacity:1" d="M2,82.0 L290.0,82.0 "/>
<path style="fill:none;stroke:#000000;stroke-width:0.1;stroke-linecap:butt;stroke-linejoin:miter;stroke-opacity:1" d="M2,122.0 L290.0,122.0 "/>
<path style="fill:none;stroke:#000000;stroke-width:0.1;stroke-linecap:butt;stroke-linejoin:miter;stroke-opacity:1" d="M2,162.0 L290.0,162.0 "/>
<path style="fill:none;stroke:#000000;stroke-width:0.1;stroke-linecap:butt;stroke-linejoin:miter;stroke-opacity:1" d="M2,202.0 L290.0,202.0 "/>
<path style="fill:none;stroke:#000000;stroke-width:0.1;stroke-linecap:butt;stroke-linejoin:miter;stroke-opacity:1" d="M2.0,2 L2.0,202.0 "/>
<path style="fill:none;stroke:#000000;stroke-width:0.1;stroke-linecap:butt;stroke-linejoin:miter;stroke-opacity:1" d="M74.0,2 L74.0,202.0 "/>
<path style="fill:none;stroke:#000000;stroke-width:0.1;stroke-linecap:butt;stroke-linejoin:miter;stroke-opacity:1" d="M146.0,2 L146.0,202.0 "/>
<path style="fill:none;stroke:#000000;stroke-width:0.1;stroke-linecap:butt;stroke-linejoin:miter;stroke-opacity:1" d="M218.0,2 L218.0,202.0 "/>
<path style="fill:none;stroke:#000000;stroke-width:0.1;stroke-linecap:butt;stroke-linejoin:miter;stroke-opacity:1" d="M290.0,2 L290.0,202.0 "/>
<path style="fill:none;stroke:#FF0000;stroke-width:0.1;stroke-linecap:butt;stroke-linejoin:miter;stroke-opacity:1" d="M72.27199983596802,37.239999771118164 L71.40799975395203,37.239999771118164 M71.11999988555908,38.3919997215271 L71.11999988555908,37.52799987792969 M72.55999994277954,38.3919997215271 L72.55999994277954,37.52799987792969 M71.11999988555908,39.83199977874756 L71.11999988555908,38.96799993515015 M72.55999994277954,39.83199977874756 L72.55999994277954,38.96799993515015 M72.27199983596802,40.11999988555908 L71.40799975395203,40.11999988555908 "/>
<path style="fill:none;stroke:#FF0000;stroke-width:0.1;stroke-linecap:butt;stroke-linejoin:miter;stroke-opacity:1" d="M144.55999994277954,38.3919997215271 L144.55999994277954,37.52799987792969 M144.55999994277954,39.83199977874756 L144.55999994277954,38.96799993515015 "/>
<path style="fill:none;stroke:#FF0000;stroke-width:0.1;stroke-linecap:butt;stroke-linejoin:miter;stroke-opacity:1" d="M216.27199983596802,37.239999771118164 L215.40799975395203,37.239999771118164 M216.55999994277954,38.3919997215271 L216.55999994277954,37.52799987792969 M216.27199983596802,38.67999982833862 L215.40799975395203,38.67999982833862 M215.11999988555908,39.83199977874756 L215.11999988555908,38.96799993515015 M216.27199983596802,40.11999988555908 L215.40799975395203,40.11999988555908 "/>
<path style="fill:none;stroke:#FF0000;stroke-width:0.1;stroke-linecap:butt;stroke-linejoin:miter;stroke-opacity:1" d="M288.271999835968,37.239999771118164 L287.407999753952,37.239999771118164 M288.55999994277954,38.3919997215271 L288.55999994277954,37.52799987792969 M288.271999835968,38.67999982833862 L287.407999753952,38.67999982833862 M288.55999994277954,39.83199977874756 L288.55999994277954,38.96799993515015 M288.271999835968,40.11999988555908 L287.407999753952,40.11999988555908 "/>
<path style="fill:none;stroke:#FF0000;stroke-width:0.1;stroke-linecap:butt;stroke-linejoin:miter;stroke-opacity:1" d="M71.11999988555908,78.3919997215271 L71.11999988555908,77.52799987792969 M72.55999994277954,78.3919997215271 L72.55999994277954,77.52799987792969 M72.27199983596802,78.67999982833862 L71.40799975395203,78.67999982833862 M72.55999994277954,79.83199977874756 L72.55999994277954,78.96799993515015 "/>
<path style="fill:none;stroke:#FF0000;stroke-width:0.1;stroke-linecap:butt;stroke-linejoin:miter;stroke-opacity:1" d="M144.27199983596802,77.23999977111816 L143.40799975395203,77.23999977111816 M143.11999988555908,78.3919997215271 L143.11999988555908,77.52799987792969 M144.27199983596802,78.67999982833862 L143.40799975395203,78.67999982833862 M144.55999994277954,79.83199977874756 L144.55999994277954,78.96799993515015 M144.27199983596802,80.11999988555908 L143.40799975395203,80.11999988555908 "/>
<path style="fill:none;stroke:#FF0000;stroke-width:0.1;stroke-linecap:butt;stroke-linejoin:miter;stroke-opacity:1" d="M216.27199983596802,77.23999977111816 L215.40799975395203,77.23999977111816 M215.11999988555908,78.3919997215271 L215.11999988555908,77.52799987792969 M216.27199983596802,78.67999982833862 L215.40799975395203,78.67999982833862 M215.11999988555908,79.83199977874756 L215.11999988555908,78.96799993515015 M216.55999994277954,79.83199977874756 L216.55999994277954,78.96799993515015 M216.27199983596802,80.11999988555908 L215.40799975395203,80.11999988555908 "/>
<path style="fill:none;stroke:#FF0000;stroke-width:0.1;stroke-linecap:butt;stroke-linejoin:miter;stroke-opacity:1" d="M288.271999835968,77.23999977111816 L287.407999753952,77.23999977111816 M288.55999994277954,78.3919997215271 L288.55999994277954,77.52799987792969 M288.55999994277954,79.83199977874756 L288.55999994277954,78.96799993515015 "/>
<path style="fill:none;stroke:#FF0000;stroke-width:0.1;stroke-linecap:butt;stroke-linejoin:miter;stroke-opacity:1" d="M72.27199983596802,117.23999977111816 L71.40799975395203,117.23999977111816 M71.11999988555908,118.3919997215271 L71.11999988555908,117.52799987792969 M72.55999994277954,118.3919997215271 L72.55999994277954,117.52799987792969 M72.27199983596802,118.67999982833862 L71.40799975395203,118.67999982833862 M71.11999988555908,119.83199977874756 L71.11999988555908,118.96799993515015 M72.55999994277954,119.83199977874756 L72.55999994277954,118.96799993515015 M72.27199983596802,120.11999988555908 L71.40799975395203,120.11999988555908 "/>
<path style="fill:none;stroke:#FF0000;stroke-width:0.1;stroke-linecap:butt;stroke-linejoin:miter;stroke-opacity:1" d="M144.27199983596802,117.23999977111816 L143.40799975395203,117.23999977111816 M143.11999988555908,118.3919997215271 L143.11999988555908,117.52799987792969 M144.55999994277954,118.3919997215271 L144.55999994277954,117.52799987792969 M144.27199983596802,118.67999982833862 L143.40799975395203,118.67999982833862 M144.55999994277954,119.83199977874756 L144.55999994277954,118.96799993515015 M144.27199983596802,120.11999988555908 L143.40799975395203,120.11999988555908 "/>
<path style="fill:none;stroke:#FF0000;stroke-width:0.1;stroke-linecap:butt;stroke-linejoin:miter;stroke-opacity:1" d="M216.27199983596802,117.23999977111816 L215.40799975395203,117.23999977111816 M215.11999988555908,118.3919997215271 L215.11999988555908,117.52799987792969 M216.55999994277954,118.3919997215271 L216.55999994277954,117.52799987792969 M215.11999988555908,119.83199977874756 L215.11999988555908,118.96799993515015 M216.55999994277954,119.83199977874756 L216.55999994277954,118.96799993515015 M216.27199983596802,120.11999988555908 L215.40799975395203,120.11999988555908 M213.67999982833862,118.3919997215271 L213.67999982833862,117.52799987792969 M213.67999982833862,119.83199977874756 L213.67999982833862,118.96799993515015 "/>
<path style="fill:none;stroke:#FF0000;stroke-width:0.1;stroke-linecap:butt;stroke-linejoin:miter;stroke-opacity:1" d="M288.55999994277954,118.3919997215271 L288.55999994277954,117.52799987792969 M288.55999994277954,119.83199977874756 L288.55999994277954,118.96799993515015 M285.6799998283386,118.3919997215271 L285.6799998283386,117.52799987792969 M285.6799998283386,119.83199977874756 L285.6799998283386,118.96799993515015 "/>
<path style="fill:none;stroke:#FF0000;stroke-width:0.1;stroke-linecap:butt;stroke-linejoin:miter;stroke-opacity:1" d="M72.27199983596802,157.23999977111816 L71.40799975395203,157.23999977111816 M72.55999994277954,158.3919997215271 L72.55999994277954,157.5279998779297 M72.27199983596802,158.67999982833862 L71.40799975395203,158.67999982833862 M71.11999988555908,159.83199977874756 L71.11999988555908,158.96799993515015 M72.27199983596802,160.11999988555908 L71.40799975395203,160.11999988555908 M69.67999982833862,158.3919997215271 L69.67999982833862,157.5279998779297 M69.67999982833862,159.83199977874756 L69.67999982833862,158.96799993515015 "/>
<path style="fill:none;stroke:#FF0000;stroke-width:0.1;stroke-linecap:butt;stroke-linejoin:miter;stroke-opacity:1" d="M144.27199983596802,157.23999977111816 L143.40799975395203,157.23999977111816 M144.55999994277954,158.3919997215271 L144.55999994277954,157.5279998779297 M144.27199983596802,158.67999982833862 L143.40799975395203,158.67999982833862 M144.55999994277954,159.83199977874756 L144.55999994277954,158.96799993515015 M144.27199983596802,160.11999988555908 L143.40799975395203,160.11999988555908 M141.67999982833862,158.3919997215271 L141.67999982833862,157.5279998779297 M141.67999982833862,159.83199977874756 L141.67999982833862,158.96799993515015 "/>
<path style="fill:none;stroke:#FF0000;stroke-width:0.1;stroke-linecap:butt;stroke-linejoin:miter;stroke-opacity:1" d="M215.11999988555908,158.3919997215271 L215.11999988555908,157.5279998779297 M216.55999994277954,158.3919997215271 L216.55999994277954,157.5279998779297 M216.27199983596802,158.67999982833862 L215.40799975395203,158.67999982833862 M216.55999994277954,159.83199977874756 L216.55999994277954,158.96799993515015 M213.67999982833862,158.3919997215271 L213.67999982833862,157.5279998779297 M213.67999982833862,159.83199977874756 L213.67999982833862,158.96799993515015 "/>
<path style="fill:none;stroke:#FF0000;stroke-width:0.1;stroke-linecap:butt;stroke-linejoin:miter;stroke-opacity:1" d="M288.271999835968,157.23999977111816 L287.407999753952,157.23999977111816 M287.1199998855591,158.3919997215271 L287.1199998855591,157.5279998779297 M288.271999835968,158.67999982833862 L287.407999753952,158.67999982833862 M288.55999994277954,159.83199977874756 L288.55999994277954,158.96799993515015 M288.271999835968,160.11999988555908 L287.407999753952,160.11999988555908 M285.6799998283386,158.3919997215271 L285.6799998283386,157.5279998779297 M285.6799998283386,159.83199977874756 L285.6799998283386,158.96799993515015 "/>
<path style="fill:none;stroke:#FF0000;stroke-width:0.1;stroke-linecap:butt;stroke-linejoin:miter;stroke-opacity:1" d="M72.27199983596802,197.23999977111816 L71.40799975395203,197.23999977111816 M71.11999988555908,198.3919997215271 L71.11999988555908,197.5279998779297 M72.27199983596802,198.67999982833862 L71.40799975395203,198.67999982833862 M71.11999988555908,199.83199977874756 L71.11999988555908,198.96799993515015 M72.55999994277954,199.83199977874756 L72.55999994277954,198.96799993515015 M72.27199983596802,200.11999988555908 L71.40799975395203,200.11999988555908 M69.67999982833862,198.3919997215271 L69.67999982833862,197.5279998779297 M69.67999982833862,199.83199977874756 L69.67999982833862,198.96799993515015 "/>
<path style="fill:none;stroke:#FF0000;stroke-width:0.1;stroke-linecap:butt;stroke-linejoin:miter;stroke-opacity:1" d="M144.27199983596802,197.23999977111816 L143.40799975395203,197.23999977111816 M144.55999994277954,198.3919997215271 L144.55999994277954,197.5279998779297 M144.55999994277954,199.83199977874756 L144.55999994277954,198.96799993515015 M141.67999982833862,198.3919997215271 L141.67999982833862,197.5279998779297 M141.67999982833862,199.83199977874756 L141.67999982833862,198.96799993515015 "/>
</svg>